<svg width="2215" height="2295" viewBox="0 0 2215 2295" fill="none" xmlns="http://www.w3.org/2000/svg">
<path d="M2215 2295H0V0H2215V2295ZM1442.14 153.406C1343.48 60.7781 1218.04 13.3649 1082.27 17.2178C987.501 20.2329 894.712 52.0842 817.786 107.613C814.926 109.745 814.926 109.746 812.122 111.836C791.919 126.769 773.595 142.74 756.256 160.929C755.079 162.167 753.938 163.369 752.796 164.57C736.578 181.439 721.125 198.658 707.359 217.627C631.956 323.376 589.89 457.655 611.297 587.985C611.594 589.702 611.882 591.369 612.171 593.035C629.039 692.24 673.301 777.015 738.414 852.789C761.286 879.329 796.671 910.544 801.136 946.794C799.469 946.82 797.852 946.846 796.234 946.871C792.953 946.901 792.953 946.902 789.737 946.932C738.388 939.632 738.388 939.631 689.14 921.261C685.788 920.135 682.436 919.011 679.083 917.889C671.869 915.476 664.654 913.062 657.441 910.645C646.479 906.969 635.516 903.3 624.55 899.636C622.716 899.023 620.937 898.428 619.157 897.834C615.522 896.619 611.886 895.405 608.25 894.19C600.79 891.698 593.329 889.206 585.869 886.712C554.9 876.359 523.927 866.015 492.953 855.675C470.832 848.29 448.711 840.904 426.594 833.507C406.894 826.918 387.193 820.334 367.489 813.759C357.109 810.296 346.728 806.835 336.352 803.362C326.544 800.078 316.737 796.795 306.925 793.525C303.281 792.312 299.638 791.098 295.995 789.883C262.15 778.519 223.798 761.071 187.757 770.661C162.052 781.148 162.052 781.148 135.379 840.417C134.674 841.986 133.991 843.51 133.307 845.033C107 903.044 82.1866 961.744 57.4043 1020.42C46.2203 1046.93 35.0536 1073.43 23.1689 1099.64C19.3601 1107.95 15.5992 1116.24 12.3203 1124.77C4.73567 1150.88 7.08686 1174.19 19.7871 1198.33C37.0344 1225.5 63.2105 1234.61 92.6416 1243.52C100.359 1245.83 108.072 1248.16 115.777 1250.51C120.081 1251.82 124.385 1253.14 128.688 1254.45C158.164 1263.42 187.573 1272.59 216.976 1281.8C223.031 1283.69 229.086 1285.59 235.142 1287.48C263.662 1296.39 292.181 1305.31 320.68 1314.3C323.126 1315.07 325.501 1315.82 327.875 1316.57C337.359 1319.56 346.844 1322.55 356.328 1325.55C388.118 1335.58 419.93 1345.54 451.777 1355.4C454.444 1356.22 454.444 1356.22 457.059 1357.03C474.457 1362.41 491.856 1367.8 509.261 1373.16C537.308 1381.8 565.382 1390.36 593.257 1399.55C596.255 1400.55 596.255 1400.55 599.193 1401.52C618.042 1407.78 637.1 1414.16 654.322 1424.2C660.517 1428.69 662.566 1431.52 663.807 1439.12C641.507 1488.56 641.508 1488.56 605.168 1530.55C601.858 1534.8 598.562 1539.05 595.28 1543.32C592.714 1546.67 592.713 1546.67 590.198 1549.94C580.769 1562.18 571.403 1574.46 562.046 1586.75C552.442 1599.36 542.835 1611.97 533.201 1624.56C522.931 1637.98 512.674 1651.41 502.436 1664.85C486.716 1685.5 470.975 1706.12 455.207 1726.73C438.66 1748.35 422.125 1769.98 405.629 1791.64C395.023 1805.57 384.407 1819.49 373.769 1833.39C367.615 1841.43 361.463 1849.47 355.333 1857.52C352.402 1861.38 349.471 1865.23 346.539 1869.09C345.011 1871.1 343.529 1873.05 342.046 1875C333.391 1886.39 324.713 1897.75 315.876 1909C311.911 1914.05 307.95 1919.09 304.003 1924.15C285.456 1948.09 263.185 1973.67 267.202 2005.87C275.424 2030.54 275.423 2030.54 334.304 2071.56C342.274 2077.1 350.216 2082.68 358.143 2088.28C361.244 2090.48 364.346 2092.67 367.448 2094.86C369.037 2095.98 370.579 2097.07 372.121 2098.16C376.79 2101.45 381.459 2104.75 386.128 2108.04C387.715 2109.17 389.257 2110.25 390.798 2111.34C393.91 2113.54 397.023 2115.74 400.136 2117.93C407.849 2123.38 415.564 2128.82 423.27 2134.27C440.493 2146.47 457.752 2158.61 475.069 2170.67C477.28 2172.21 479.426 2173.7 481.571 2175.2C510.787 2195.54 540.085 2215.75 569.65 2235.58C572.747 2237.65 575.843 2239.73 578.938 2241.8C606.834 2260.65 633.16 2282.89 668.751 2276.96C690.407 2267.8 703.148 2250.55 716.403 2231.78C724.419 2220.37 732.681 2209.18 741.15 2198.1C756.648 2177.89 771.944 2157.54 787.008 2137C793.347 2128.35 799.704 2119.71 806.069 2111.08C808.637 2107.59 811.204 2104.11 813.771 2100.63C815.078 2098.85 816.347 2097.13 817.615 2095.41L956.042 1907.54C958.605 1904.07 961.169 1900.59 963.732 1897.11C970.167 1888.38 976.603 1879.65 983.029 1870.91C998.529 1849.83 1014.08 1828.79 1029.81 1807.88C1034.13 1802.14 1038.44 1796.4 1042.74 1790.64C1046 1786.28 1049.26 1781.92 1052.54 1777.57C1057.16 1771.44 1061.77 1765.31 1066.33 1759.14C1068.87 1755.7 1071.42 1752.27 1073.98 1748.85C1075.25 1747.15 1076.48 1745.5 1077.71 1743.85C1081.02 1739.33 1084.37 1734.86 1087.86 1730.47C1095.24 1722.34 1104.14 1716.42 1115.34 1715.83C1122.31 1718.01 1126.77 1722.36 1131.76 1727.58C1132.9 1728.81 1134.01 1730.01 1135.12 1731.21C1157.96 1755.95 1179.44 1781.75 1200.03 1808.37C1201.12 1809.78 1202.18 1811.15 1203.23 1812.51C1241.47 1861.93 1278.16 1912.5 1314.06 1963.63C1315.23 1965.29 1316.36 1966.91 1317.49 1968.52C1341.08 2002.13 1364.54 2035.83 1387.96 2069.56C1404.78 2093.78 1421.63 2117.97 1438.67 2142.03C1441.82 2146.49 1444.98 2150.96 1448.12 2155.43C1477.88 2197.93 1506.48 2256.79 1561.05 2268.66C1584.45 2271.65 1604.8 2267.48 1624.01 2254.16C1631.81 2248.48 1639.64 2242.89 1647.61 2237.45C1661.78 2227.77 1675.88 2217.99 1689.97 2208.19C1713.84 2191.56 1737.74 2174.98 1761.78 2158.58C1800.54 2132.14 1839.14 2105.47 1877.02 2077.77C1878.78 2076.48 1880.48 2075.24 1882.19 2073.99C1905.1 2040.3 1935.67 2019.92 1944.5 1991.07C1947.11 1958.94 1947.11 1958.94 1898.55 1902.95C1895.03 1898.4 1891.51 1893.84 1888 1889.27C1877.33 1875.36 1866.59 1861.5 1855.82 1847.67C1848.75 1838.6 1841.68 1829.53 1834.67 1820.41C1825.51 1808.48 1816.34 1796.58 1807.1 1784.71C1794.98 1769.15 1782.9 1753.57 1770.88 1737.93C1756.77 1719.53 1742.62 1701.17 1728.38 1682.88C1721.31 1673.8 1714.24 1664.73 1707.23 1655.62C1698.07 1643.69 1688.89 1631.78 1679.66 1619.92C1665.81 1602.13 1652.01 1584.31 1638.29 1566.42C1635.59 1562.9 1632.89 1559.37 1630.18 1555.85C1629.25 1554.63 1628.35 1553.45 1627.44 1552.28C1621.89 1545.04 1616.31 1537.83 1610.64 1530.69C1600.23 1517.57 1589.96 1504.34 1579.92 1490.92C1578.52 1489.04 1577.17 1487.22 1575.81 1485.4C1566.9 1473.58 1557.82 1461.76 1552.6 1447.77C1551.98 1440.14 1551.36 1434.87 1554.79 1427.99C1566.15 1418.74 1578.2 1412.85 1592.04 1408.3C1594.25 1407.6 1596.39 1406.93 1598.53 1406.26C1605.86 1403.88 1613.19 1401.51 1620.53 1399.18C1625.85 1397.49 1631.15 1395.8 1636.46 1394.09C1653.32 1388.65 1670.2 1383.26 1687.1 1377.9C1692.51 1376.18 1697.91 1374.47 1703.32 1372.75C1728.85 1364.64 1754.38 1356.57 1779.93 1348.53C1816.17 1337.14 1852.37 1325.64 1888.57 1314.11C1924.48 1302.66 1960.39 1291.22 1996.34 1279.9C1999.19 1279 2002.04 1278.1 2004.89 1277.2C2017 1273.38 2029.11 1269.57 2041.23 1265.77C2065.92 1258.02 2090.57 1250.19 2115.14 1242.06C2119.13 1240.73 2119.13 1240.73 2123.04 1239.43C2150.33 1230.39 2187.36 1222.82 2202.99 1196.46C2210.2 1170.3 2210.2 1170.3 2186.29 1107.16C2185.12 1104.08 2183.96 1100.99 2182.8 1097.9C2169.76 1063.12 2169.76 1063.12 2141.07 991.868C2131.01 966.888 2120.93 941.916 2111.29 916.772C2110.4 914.466 2109.55 912.228 2108.69 909.99C2104.66 899.463 2100.63 888.936 2096.66 878.385C2084.33 845.563 2068.46 791.079 2036.82 771.425C2013.64 762.537 1987.1 769.832 1964.46 776.891C1962.29 777.579 1962.29 777.579 1960.15 778.254C1955.2 779.807 1950.26 781.363 1945.31 782.929C1943.5 783.503 1941.74 784.06 1939.98 784.617C1897.92 797.92 1856.06 811.797 1814.23 825.813C1793.84 832.646 1773.45 839.455 1753.06 846.261C1745.98 848.623 1738.9 850.985 1731.82 853.348C1688.19 867.911 1644.56 882.465 1600.9 896.923C1590.39 900.401 1579.87 903.876 1569.37 907.371C1535.08 918.789 1500.85 930.588 1466.02 940.237C1463.82 940.827 1461.69 941.398 1459.57 941.97C1446.61 945.531 1434.52 947.357 1421.07 947.607C1415.34 946.616 1413.41 944.629 1409.78 940.202C1412.16 930.208 1415.05 922.438 1420.8 913.764C1421.72 912.434 1422.62 911.143 1423.51 909.853C1435.82 891.733 1449.31 874.544 1462.9 857.371C1482.9 832.105 1503.07 806.888 1521 780.078C1588.33 676.505 1609.61 542.121 1584.76 421.52C1584.28 419.323 1583.82 417.19 1583.36 415.058C1565.7 332.52 1528.92 254.3 1475.02 189.221C1473.04 186.864 1471.07 184.507 1469.1 182.148C1460.78 171.808 1451.75 162.543 1442.14 153.406Z" fill="#011EE6"/>
</svg>
