<svg width="1925" height="1810" viewBox="0 0 1925 1810" fill="none" xmlns="http://www.w3.org/2000/svg">
<path d="M771.912 0C763.783 7.27744 755.923 14.8861 748.256 22.9287C747.079 24.1668 745.938 25.3687 744.796 26.5703C728.578 43.4385 713.125 60.6577 699.359 79.627C623.956 185.376 581.89 319.655 603.297 449.985C603.594 451.702 603.882 453.369 604.171 455.035C621.039 554.24 665.301 639.015 730.414 714.789C753.286 741.329 788.67 772.544 793.135 808.794C791.469 808.82 789.852 808.846 788.234 808.871C784.953 808.901 784.953 808.902 781.737 808.932C730.388 801.632 730.388 801.631 681.139 783.261C677.787 782.135 674.435 781.011 671.083 779.889C663.869 777.476 656.654 775.062 649.441 772.645C638.479 768.969 627.516 765.3 616.55 761.636C614.716 761.023 612.936 760.428 611.156 759.834C607.521 758.619 603.885 757.405 600.249 756.19C592.789 753.698 585.328 751.206 577.868 748.712C546.899 738.359 515.927 728.015 484.953 717.675C462.832 710.29 440.711 702.904 418.594 695.507C398.894 688.918 379.193 682.334 359.489 675.759C349.109 672.296 338.728 668.835 328.352 665.362C318.545 662.078 308.737 658.795 298.925 655.525C295.281 654.312 291.638 653.098 287.995 651.883C254.15 640.519 215.798 623.071 179.757 632.661C154.052 643.148 154.052 643.148 127.379 702.417C126.674 703.986 125.99 705.51 125.306 707.033C98.9994 765.044 74.1866 823.744 49.4043 882.418C38.2203 908.934 27.0536 935.429 15.1689 961.641C11.3601 969.949 7.59827 978.238 4.31934 986.771C-3.26532 1012.88 -0.913188 1036.19 11.7871 1060.33C29.0345 1087.5 55.2104 1096.61 84.6416 1105.52C92.3594 1107.83 100.072 1110.16 107.777 1112.51C112.081 1113.82 116.385 1115.14 120.688 1116.45C150.163 1125.42 179.572 1134.59 208.975 1143.8C215.03 1145.69 221.086 1147.59 227.142 1149.48C255.662 1158.39 284.181 1167.31 312.68 1176.3C315.126 1177.07 317.501 1177.82 319.875 1178.57C329.359 1181.56 338.844 1184.55 348.328 1187.55C380.118 1197.58 411.93 1207.54 443.777 1217.4C446.444 1218.22 446.444 1218.22 449.059 1219.03C466.457 1224.41 483.856 1229.8 501.261 1235.16C529.308 1243.8 557.382 1252.36 585.257 1261.55C588.255 1262.55 588.255 1262.55 591.193 1263.52C610.042 1269.78 629.1 1276.16 646.322 1286.2C652.517 1290.69 654.566 1293.52 655.807 1301.12C633.507 1350.56 633.507 1350.56 597.167 1392.55C593.857 1396.8 590.561 1401.05 587.279 1405.32C584.713 1408.67 584.713 1408.67 582.198 1411.94C572.769 1424.18 563.403 1436.46 554.046 1448.75C544.442 1461.36 534.835 1473.97 525.201 1486.56C514.931 1499.98 504.674 1513.41 494.436 1526.85C478.715 1547.5 462.974 1568.12 447.206 1588.73C430.659 1610.35 414.125 1631.98 397.629 1653.64C387.023 1667.57 376.407 1681.49 365.769 1695.39C359.615 1703.43 353.463 1711.47 347.333 1719.52C344.402 1723.38 341.471 1727.23 338.539 1731.09C337.011 1733.1 335.529 1735.05 334.046 1737C325.391 1748.39 316.713 1759.75 307.876 1771C303.911 1776.05 299.95 1781.09 296.003 1786.15C290.019 1793.87 283.647 1801.77 277.896 1810H0V0H771.912ZM1107.34 1577.83C1114.31 1580.01 1118.77 1584.35 1123.76 1589.58L1127.12 1593.21C1149.96 1617.95 1171.44 1643.75 1192.03 1670.37C1193.12 1671.78 1194.18 1673.15 1195.23 1674.51C1229.57 1718.89 1262.65 1764.2 1295.04 1810H918.232C928.169 1796.51 938.106 1783.03 948.042 1769.54C950.605 1766.07 953.169 1762.59 955.732 1759.11C962.167 1750.38 968.603 1741.65 975.029 1732.91C990.529 1711.83 1006.08 1690.79 1021.81 1669.88C1026.13 1664.14 1030.44 1658.4 1034.74 1652.64C1038 1648.28 1041.26 1643.92 1044.54 1639.57C1049.16 1633.44 1053.77 1627.31 1058.33 1621.14C1060.87 1617.7 1063.42 1614.27 1065.98 1610.85C1067.25 1609.15 1068.48 1607.5 1069.71 1605.85C1073.02 1601.33 1076.37 1596.86 1079.85 1592.47C1087.24 1584.34 1096.14 1578.42 1107.34 1577.83ZM1925 1810H1924.93C1916.85 1798.89 1905.74 1784.55 1890.55 1764.95C1887.03 1760.4 1883.51 1755.84 1880 1751.27C1869.33 1737.36 1858.59 1723.5 1847.82 1709.67C1840.75 1700.6 1833.68 1691.53 1826.67 1682.41C1817.51 1670.48 1808.34 1658.58 1799.1 1646.71C1786.98 1631.15 1774.89 1615.57 1762.88 1599.93C1748.77 1581.53 1734.62 1563.17 1720.38 1544.88C1713.31 1535.8 1706.24 1526.73 1699.23 1517.62C1690.07 1505.69 1680.89 1493.78 1671.66 1481.92C1657.81 1464.13 1644.01 1446.31 1630.29 1428.42C1627.59 1424.9 1624.89 1421.37 1622.18 1417.85C1621.25 1416.63 1620.35 1415.45 1619.44 1414.28C1613.89 1407.04 1608.31 1399.83 1602.64 1392.69C1592.23 1379.57 1581.96 1366.34 1571.92 1352.92C1570.52 1351.04 1569.16 1349.22 1567.81 1347.4C1558.9 1335.58 1549.82 1323.76 1544.6 1309.77C1543.98 1302.14 1543.36 1296.87 1546.79 1289.99C1558.15 1280.74 1570.2 1274.85 1584.04 1270.3C1586.25 1269.6 1588.39 1268.93 1590.53 1268.26C1597.86 1265.88 1605.19 1263.51 1612.53 1261.18C1617.84 1259.49 1623.15 1257.8 1628.46 1256.09C1645.32 1250.65 1662.2 1245.26 1679.1 1239.9C1684.51 1238.18 1689.91 1236.47 1695.32 1234.75C1720.85 1226.64 1746.38 1218.57 1771.93 1210.53C1808.17 1199.14 1844.37 1187.64 1880.57 1176.11C1895.38 1171.39 1910.19 1166.67 1925 1161.96V1810ZM1925 648.832C1885.29 661.457 1845.74 674.573 1806.23 687.813C1785.84 694.646 1765.45 701.455 1745.05 708.261C1737.98 710.623 1730.9 712.985 1723.82 715.348C1680.19 729.911 1636.56 744.465 1592.9 758.923C1592.39 762.401 1571.87 765.876 1561.37 769.371C1527.08 780.789 1492.85 792.588 1458.02 802.237C1455.82 802.827 1453.69 803.398 1451.57 803.97C1438.61 807.531 1426.52 809.357 1413.07 809.607C1407.34 808.616 1405.41 806.63 1401.78 802.202C1404.16 792.208 1407.05 784.438 1412.8 775.764C1413.72 774.434 1414.62 773.143 1415.51 771.853C1427.82 753.733 1441.31 736.544 1454.9 719.371C1474.9 694.105 1495.07 668.888 1513 642.078C1580.33 538.505 1601.61 404.121 1576.76 283.52C1576.28 281.323 1575.82 279.19 1575.36 277.058C1557.7 194.52 1520.92 116.3 1467.02 51.2207C1465.04 48.8641 1463.07 46.5068 1461.1 44.1484C1452.78 33.8077 1443.75 24.5432 1434.14 15.4062C1428.51 10.1228 1422.79 4.9881 1416.99 0H1925V648.832Z" fill="#011EE6"/>
</svg>
