<svg width="2199" height="2261" viewBox="0 0 2199 2261" fill="none" xmlns="http://www.w3.org/2000/svg">
<path d="M2199 1153.5C2197.91 1141.96 2192.07 1126.54 2178.29 1090.16C2177.12 1087.08 2175.96 1083.99 2174.8 1080.9C2161.76 1046.12 2161.76 1046.12 2133.07 974.868C2123.01 949.888 2112.93 924.916 2103.29 899.772C2102.4 897.466 2101.55 895.228 2100.69 892.99C2096.66 882.463 2092.63 871.936 2088.66 861.385C2076.33 828.563 2060.46 774.079 2028.82 754.425C2005.64 745.537 1979.1 752.832 1956.46 759.891C1954.29 760.579 1954.29 760.579 1952.15 761.254C1947.2 762.807 1942.26 764.363 1937.31 765.929C1935.5 766.503 1933.74 767.06 1931.98 767.617C1889.92 780.92 1848.06 794.797 1806.23 808.813C1785.84 815.646 1765.45 822.455 1745.06 829.261C1737.98 831.623 1730.9 833.985 1723.82 836.348C1680.19 850.911 1636.56 865.465 1592.9 879.923C1582.39 883.401 1571.87 886.876 1561.37 890.371C1527.08 901.789 1492.85 913.588 1458.02 923.237C1455.82 923.827 1453.69 924.398 1451.57 924.97C1438.61 928.531 1426.52 930.357 1413.07 930.607C1407.34 929.616 1405.41 927.629 1401.78 923.202C1404.16 913.208 1407.05 905.438 1412.8 896.764C1413.72 895.434 1414.62 894.143 1415.51 892.853C1427.82 874.733 1441.31 857.544 1454.9 840.371C1474.9 815.105 1495.07 789.888 1513 763.078C1580.33 659.505 1601.61 525.121 1576.76 404.52C1576.28 402.323 1575.82 400.19 1575.36 398.058C1557.7 315.52 1520.92 237.3 1467.02 172.221C1465.04 169.864 1463.07 167.507 1461.1 165.148C1452.78 154.808 1443.75 145.543 1434.14 136.406C1335.48 43.7781 1210.04 -3.63506 1074.27 0.217773C979.501 3.23286 886.712 35.0842 809.786 90.6133C806.926 92.7455 806.926 92.7459 804.122 94.8359C783.919 109.769 765.595 125.74 748.256 143.929C747.079 145.167 745.938 146.369 744.796 147.57C728.578 164.439 713.125 181.658 699.359 200.627C623.956 306.376 581.891 440.655 603.297 570.985C603.594 572.702 603.882 574.369 604.171 576.035C621.039 675.24 665.301 760.015 730.414 835.789C753.286 862.329 788.671 893.544 793.136 929.794C791.469 929.82 789.852 929.846 788.234 929.871C784.953 929.901 784.953 929.902 781.737 929.932C730.388 922.632 730.388 922.631 681.14 904.261C677.788 903.135 674.436 902.011 671.083 900.889C663.869 898.476 656.654 896.062 649.441 893.645C638.479 889.969 627.516 886.3 616.55 882.636C614.716 882.023 612.937 881.428 611.157 880.834L600.25 877.19C592.79 874.698 585.329 872.206 577.869 869.712C546.9 859.359 515.927 849.015 484.953 838.675C462.832 831.29 440.711 823.904 418.594 816.507C398.894 809.918 379.193 803.334 359.489 796.759C349.109 793.296 338.728 789.835 328.352 786.362C318.544 783.078 308.737 779.795 298.925 776.525C295.281 775.312 291.638 774.098 287.995 772.883C254.15 761.519 215.798 744.071 179.757 753.661C154.052 764.148 154.052 764.148 127.379 823.417C126.674 824.986 125.991 826.51 125.307 828.033C99.0004 886.044 74.1866 944.744 49.4043 1003.42C38.2203 1029.93 27.0536 1056.43 15.1689 1082.64C11.3601 1090.95 7.59923 1099.24 4.32031 1107.77C-3.26432 1133.88 -0.913124 1157.19 11.7871 1181.33C29.0344 1208.5 55.2105 1217.61 84.6416 1226.52C92.3594 1228.83 100.072 1231.16 107.777 1233.51C112.081 1234.83 116.385 1236.14 120.688 1237.45C150.164 1246.42 179.573 1255.59 208.976 1264.8C215.031 1266.69 221.086 1268.59 227.142 1270.48C255.662 1279.39 284.181 1288.31 312.68 1297.3C315.126 1298.07 317.501 1298.82 319.875 1299.57C329.359 1302.56 338.844 1305.55 348.328 1308.55C380.118 1318.58 411.93 1328.54 443.777 1338.4C446.444 1339.22 446.444 1339.22 449.059 1340.03C466.457 1345.41 483.856 1350.8 501.261 1356.16C529.308 1364.8 557.382 1373.36 585.257 1382.55C588.255 1383.55 588.255 1383.55 591.193 1384.52C610.042 1390.78 629.1 1397.16 646.322 1407.2C652.517 1411.69 654.566 1414.52 655.807 1422.12C633.507 1471.56 633.508 1471.56 597.168 1513.55C593.858 1517.8 590.562 1522.05 587.28 1526.32C584.714 1529.67 584.713 1529.67 582.198 1532.94C572.769 1545.18 563.403 1557.46 554.046 1569.75C544.442 1582.36 534.835 1594.97 525.201 1607.56C514.932 1620.98 504.674 1634.41 494.436 1647.85C478.716 1668.5 462.975 1689.12 447.207 1709.73C430.66 1731.35 414.125 1752.98 397.629 1774.64C387.023 1788.57 376.407 1802.49 365.769 1816.39C359.615 1824.43 353.463 1832.47 347.333 1840.52C344.402 1844.38 341.471 1848.23 338.539 1852.09C337.011 1854.1 335.529 1856.05 334.046 1858C325.391 1869.39 316.713 1880.75 307.876 1892C303.911 1897.05 299.949 1902.09 296.003 1907.15C277.456 1931.09 255.185 1956.67 259.202 1988.87C267.424 2013.54 267.424 2013.54 326.304 2054.56C334.274 2060.1 342.216 2065.68 350.143 2071.28C353.244 2073.48 356.346 2075.67 359.448 2077.86C361.037 2078.98 362.579 2080.07 364.121 2081.16C368.79 2084.45 373.459 2087.75 378.128 2091.04C379.715 2092.17 381.257 2093.25 382.798 2094.34C385.91 2096.54 389.023 2098.74 392.136 2100.93C399.849 2106.38 407.564 2111.82 415.27 2117.27C432.493 2129.47 449.752 2141.61 467.069 2153.67C469.28 2155.21 471.426 2156.7 473.571 2158.2C502.787 2178.54 532.086 2198.75 561.651 2218.58C564.748 2220.65 567.843 2222.73 570.938 2224.8C598.834 2243.65 625.16 2265.89 660.751 2259.96C682.407 2250.8 695.148 2233.55 708.403 2214.78C716.419 2203.37 724.681 2192.18 733.15 2181.1C748.648 2160.89 763.944 2140.54 779.008 2120C785.347 2111.35 791.704 2102.71 798.069 2094.08C800.637 2090.59 803.204 2087.11 805.771 2083.63C807.077 2081.85 808.347 2080.13 809.615 2078.41C855.758 2015.79 901.9 1953.17 948.042 1890.54C950.605 1887.07 953.169 1883.59 955.732 1880.11C962.167 1871.38 968.603 1862.65 975.029 1853.91C990.529 1832.83 1006.08 1811.79 1021.81 1790.88C1026.13 1785.14 1030.44 1779.4 1034.74 1773.64C1038 1769.28 1041.26 1764.92 1044.54 1760.57C1049.16 1754.44 1053.77 1748.31 1058.33 1742.14C1060.87 1738.7 1063.42 1735.27 1065.98 1731.85C1067.25 1730.15 1068.48 1728.5 1069.71 1726.85C1073.02 1722.33 1076.37 1717.86 1079.86 1713.47C1087.24 1705.34 1096.14 1699.42 1107.34 1698.83C1114.31 1701.01 1118.77 1705.36 1123.76 1710.58C1124.9 1711.81 1126.01 1713.01 1127.12 1714.21C1149.96 1738.95 1171.44 1764.75 1192.03 1791.37C1193.12 1792.78 1194.18 1794.15 1195.23 1795.51C1233.47 1844.93 1270.16 1895.5 1306.06 1946.63C1307.23 1948.29 1308.36 1949.91 1309.49 1951.52C1333.08 1985.13 1356.54 2018.83 1379.96 2052.56C1396.78 2076.78 1413.63 2100.97 1430.67 2125.03C1433.83 2129.49 1436.98 2133.96 1440.12 2138.43C1469.88 2180.93 1498.48 2239.79 1553.05 2251.66C1576.45 2254.65 1596.8 2250.48 1616.01 2237.16C1623.81 2231.48 1631.64 2225.89 1639.61 2220.45C1653.78 2210.77 1667.88 2200.99 1681.97 2191.19C1705.84 2174.56 1729.74 2157.98 1753.78 2141.58C1792.54 2115.14 1831.14 2088.47 1869.02 2060.77C1870.78 2059.48 1872.48 2058.24 1874.19 2056.99C1897.1 2040.3 1935.67 2019.92 1944.5 1991.07C1947.11 1958.94 1947.11 1958.94 1890.55 1885.95C1887.03 1881.4 1883.51 1876.84 1880 1872.27C1869.33 1858.36 1858.59 1844.5 1847.82 1830.67C1840.75 1821.6 1833.68 1812.53 1826.67 1803.41C1817.51 1791.48 1808.34 1779.58 1799.1 1767.71C1786.98 1752.15 1774.9 1736.57 1762.88 1720.93C1748.77 1702.53 1734.62 1684.17 1720.38 1665.88C1713.31 1656.8 1706.24 1647.73 1699.23 1638.62C1690.07 1626.69 1680.89 1614.78 1671.66 1602.92C1657.81 1585.13 1644.01 1567.31 1630.29 1549.42C1627.59 1545.9 1624.89 1542.37 1622.18 1538.85C1621.25 1537.63 1620.35 1536.46 1619.44 1535.28C1613.89 1528.04 1608.31 1520.83 1602.64 1513.69C1592.23 1500.57 1581.96 1487.34 1571.92 1473.92C1570.52 1472.04 1569.17 1470.22 1567.81 1468.4C1558.9 1456.58 1549.82 1444.76 1544.6 1430.77C1543.98 1423.14 1543.36 1417.87 1546.79 1410.99C1558.15 1401.74 1570.2 1395.85 1584.04 1391.3C1586.25 1390.6 1588.39 1389.93 1590.53 1389.26C1597.86 1386.88 1605.19 1384.51 1612.53 1382.18C1617.85 1380.49 1623.15 1378.8 1628.46 1377.09C1645.32 1371.65 1662.2 1366.26 1679.1 1360.9C1684.51 1359.18 1689.91 1357.47 1695.32 1355.75C1720.85 1347.64 1746.38 1339.57 1771.93 1331.53C1808.17 1320.14 1844.37 1308.64 1880.57 1297.11C1916.48 1285.66 1952.39 1274.22 1988.34 1262.9C1991.19 1262 1994.04 1261.1 1996.89 1260.2C2009 1256.38 2021.11 1252.57 2033.23 1248.77C2057.92 1241.02 2082.57 1233.19 2107.14 1225.06C2111.13 1223.73 2111.13 1223.73 2115.04 1222.43C2142.33 1213.39 2179.36 1205.82 2194.99 1179.46C2197.03 1172.05 2198.49 1166.74 2199 1161.5V2261H0V0H2199V1153.5Z" fill="#011EE6"/>
</svg>
